<svg width="126" height="19" viewBox="0 0 126 19" fill="none" xmlns="http://www.w3.org/2000/svg">
    <g clip-path="url(#clip0_227_2176)">
        <path d="M0.400011 17.94C0.958533 17.7471 1.46739 17.4329 1.89001 17.02C2.14182 16.5121 2.24907 15.9447 2.20001 15.38V5.95997C2.22228 5.72371 2.19364 5.48542 2.11601 5.26117C2.03839 5.03691 1.91358 4.83191 1.75001 4.65998C1.22746 4.23538 0.63994 3.89772 0.0100098 3.65998V3.37997L5.73001 1.37997V15.38C5.68056 15.9524 5.78048 16.5278 6.02001 17.05C6.45053 17.4577 6.96143 17.771 7.52001 17.97V18.32H0.400011V17.94Z" fill="white"/>
        <path d="M15.9901 16.32C14.6342 14.532 13.9574 12.3206 14.0801 10.08C13.9602 7.82431 14.6362 5.59813 15.9901 3.79C16.4863 3.06812 17.1507 2.4778 17.926 2.06996C18.7013 1.66212 19.5641 1.44901 20.4401 1.44901C21.3161 1.44901 22.1789 1.66212 22.9542 2.06996C23.7295 2.4778 24.3939 3.06812 24.8901 3.79C26.2455 5.60506 26.9214 7.83797 26.8001 10.1C26.9424 12.3553 26.264 14.5859 24.8901 16.38C24.3799 17.0824 23.7108 17.654 22.9374 18.0481C22.1639 18.4423 21.3082 18.6477 20.4401 18.6477C19.572 18.6477 18.7163 18.4423 17.9428 18.0481C17.1694 17.654 16.5003 17.0824 15.9901 16.38V16.32ZM20.4201 2.64C18.8201 2.64 17.7301 5.06 17.7301 10.03C17.7301 15 18.8401 17.38 20.4401 17.38C22.0401 17.38 23.2001 15.04 23.2001 10.08C23.2001 5.12 22.0201 2.64 20.4201 2.64Z" fill="white"/>
        <path d="M63.0501 13.47L62.4801 18.29H49.3201V17.94C49.8835 17.7538 50.392 17.4308 50.8001 17C51.0665 16.4362 51.1737 15.8103 51.1101 15.19V4.56999C51.1795 3.95597 51.072 3.33489 50.8001 2.77999C50.4053 2.31998 49.8941 1.97459 49.3201 1.77999V1.42999H61.6601L62.0801 6.22999H61.7301C61.3715 5.25764 60.7606 4.39824 59.9601 3.73999C59.0928 3.01652 57.9888 2.63901 56.8601 2.67999H55.1101V8.72999H57.0401C57.6292 8.7379 58.21 8.58933 58.723 8.29945C59.236 8.00957 59.6629 7.58877 59.9601 7.07999H60.2701V11.67H59.9601C59.7212 11.0976 59.3141 10.6114 58.7926 10.2756C58.2711 9.93989 57.66 9.77053 57.0401 9.78999H55.1101V15.85C55.1101 16.5 56.0501 16.95 57.5401 16.95H58.1001C59.0887 16.9447 60.0388 16.5661 60.7601 15.89C61.5777 15.1935 62.2563 14.3486 62.7601 13.4L63.0501 13.47Z" fill="white"/>
        <path d="M85.3299 17.38C85.6311 17.619 85.9687 17.8081 86.3299 17.94V18.29H78.7199V17.94C79.9199 17.4 80.3199 17.07 80.3199 16.48C80.2599 15.9859 80.1355 15.5018 79.9499 15.04L79.1999 12.97H74.1999L74.1299 13.21C73.797 14.1642 73.5592 15.149 73.4199 16.15C73.4199 16.9 73.7999 17.4 74.8299 17.94V18.29H69.9099V17.94C70.6059 17.4787 71.2068 16.888 71.6799 16.2C72.1917 15.3051 72.6105 14.3602 72.9299 13.38L76.1999 4.20999L75.3499 2.56999C76.5916 2.11251 77.7789 1.51889 78.8899 0.799988L84.5399 15.92C84.6542 16.4736 84.929 16.9814 85.3299 17.38ZM78.6699 11.32L76.6699 5.71999L74.7399 11.32H78.6699Z" fill="white"/>
        <path d="M92.58 17.21L92.27 12.27H92.62C93.3861 13.9 94.5149 15.3332 95.92 16.46C96.5212 16.9683 97.2736 17.2636 98.06 17.3C98.3405 17.3145 98.6208 17.2697 98.8829 17.1687C99.1449 17.0676 99.3827 16.9126 99.5808 16.7135C99.7789 16.5145 99.9328 16.2759 100.033 16.0134C100.132 15.7509 100.176 15.4704 100.16 15.19C100.16 13.65 99.16 12.64 96.86 11.3C96.3 10.95 95.94 10.74 95.8 10.66L94.91 10.08C94.6119 9.887 94.3279 9.67313 94.06 9.44L93.45 8.78C93.0058 8.30379 92.7164 7.70407 92.62 7.06C92.5261 6.6907 92.4791 6.31105 92.48 5.93C92.4444 5.26698 92.557 4.60437 92.8096 3.9903C93.0621 3.37624 93.4483 2.82615 93.94 2.38C94.9845 1.51865 96.3069 1.06718 97.66 1.11C99.1813 1.15192 100.685 1.44591 102.11 1.98L102.58 6.79H102.25C101.691 5.65632 100.963 4.61438 100.09 3.7C99.7764 3.31395 99.3861 2.99728 98.9437 2.77005C98.5013 2.54282 98.0165 2.41 97.52 2.38C97.2581 2.37094 96.9972 2.41704 96.7543 2.51529C96.5113 2.61355 96.2918 2.76177 96.1098 2.95035C95.9278 3.13893 95.7875 3.36364 95.698 3.60993C95.6084 3.85622 95.5716 4.11858 95.59 4.38C95.5904 4.6831 95.6506 4.98314 95.7673 5.26287C95.884 5.5426 96.0549 5.79651 96.27 6.01C97.0469 6.67295 97.8839 7.26216 98.77 7.77C99.8635 8.38186 100.904 9.08432 101.88 9.87C102.379 10.3351 102.774 10.901 103.038 11.5303C103.302 12.1597 103.428 12.8379 103.41 13.52C103.41 17.24 100.53 18.58 97.99 18.58C96.1093 18.5166 94.2642 18.0494 92.58 17.21Z" fill="white"/>
        <path d="M125.2 6.25999H124.87C124.505 5.29952 123.899 4.44902 123.11 3.78999C122.237 3.04641 121.115 2.66058 119.97 2.70999H119.9V15.19C119.848 15.8079 119.947 16.4292 120.19 17C120.614 17.4214 121.126 17.7426 121.69 17.94V18.29H114.09V17.94C114.652 17.7508 115.16 17.4283 115.57 17C115.832 16.4347 115.939 15.8101 115.88 15.19V2.70999H115.71C114.568 2.66213 113.45 3.04793 112.58 3.78999C111.791 4.44902 111.185 5.29952 110.82 6.25999H110.49L110.91 1.45999H124.8L125.2 6.25999Z" fill="white"/>
    </g>
    <defs>
        <clipPath id="clip0_227_2176">
            <rect width="125.22" height="17.8" fill="white" transform="translate(0 0.799988)"/>
        </clipPath>
    </defs>
</svg>
